<?xml version="1.0" encoding="UTF-8"?>
<svg width="202px" height="176px" viewBox="0 0 202 176" version="1.1" xmlns="http://www.w3.org/2000/svg" xmlns:xlink="http://www.w3.org/1999/xlink">
    <!-- Generator: sketchtool 46.2 (44496) - http://www.bohemiancoding.com/sketch -->
    <title>29A9DE0F-E898-4965-84D4-1BB24F715D5A</title>
    <desc>Created with sketchtool.</desc>
    <defs></defs>
    <g id="首页" stroke="none" stroke-width="1" fill="none" fill-rule="evenodd">
        <g id="Employer-Copy-2" transform="translate(-106.000000, -1536.000000)">
            <g id="3" transform="translate(106.000000, 1536.000000)">
                <rect id="Rectangle-35" fill="#D8D8D8" x="99.9949239" y="2.01162791" width="2.02030457" height="34.3953488"></rect>
                <path d="M147.472081,76.872093 C143.515823,76.872093 132.636577,76.872093 129.564836,76.872093 C124.391659,76.872093 120.19797,72.6960056 120.19797,67.5445408 C120.19797,62.3930759 124.391659,58.2169886 129.564836,58.2169886 C130.185795,58.2169886 130.79264,58.2771585 131.379814,58.3919629 C132.49866,50.5391118 139.277143,44.5 147.472081,44.5 C154.217542,44.5 160.003304,48.5917105 162.462961,54.418657 C162.788503,54.390569 163.117997,54.3762318 163.450854,54.3762318 C169.689097,54.3762318 174.746193,59.4121018 174.746193,65.6241624 C174.746193,71.8362229 169.689097,76.872093 163.450854,76.872093 C160.72079,76.872093 150.711473,76.872093 147.472081,76.872093 Z" id="Combined-Shape-Copy-2" fill="#E5F3FF"></path>
                <polygon id="Triangle-2" fill="#90C9FB" points="101.510152 25.2790698 173.736041 138.581395 29.284264 138.581395"></polygon>
                <polygon id="Triangle-3" fill="#3B76E6" points="161.109137 78.8953488 194.949239 137.569767 127.269036 137.569767"></polygon>
                <path d="M162.371827,137.569767 L194.949239,137.569767 L161.109137,78.8953488 L160.604061,79.7710864 L160.604061,96.0930233 L166.664975,103.174419 L162.371827,137.569767 Z" id="Combined-Shape" fill="#BCE1FE"></path>
                <path d="M105.307219,138.581395 L173.736041,138.581395 L102.015228,25.4828509 L102.015228,78.8007362 L114.908858,82.0321231 L105.307219,138.581395 Z" id="Combined-Shape" fill="#BCE1FE"></path>
                <path d="M43.9314721,108.232558 C38.1436134,108.232558 22.2276791,108.232558 17.7338358,108.232558 C10.1656686,108.232558 4.03045685,102.09893 4.03045685,94.5327158 C4.03045685,86.9665018 10.1656686,80.8328735 17.7338358,80.8328735 C18.6422749,80.8328735 19.5300677,80.9212481 20.3890817,81.089867 C22.0259115,69.555992 31.942581,60.6860465 43.9314721,60.6860465 C53.7998308,60.6860465 62.2641866,66.6957463 65.862574,75.254074 C66.3388303,75.2128197 66.8208676,75.1917619 67.3078244,75.1917619 C76.4341437,75.1917619 83.8324873,82.5881961 83.8324873,91.71216 C83.8324873,100.836124 76.4341437,108.232558 67.3078244,108.232558 C63.3138422,108.232558 48.6705825,108.232558 43.9314721,108.232558 Z" id="Combined-Shape" fill="#BCE1FE" transform="translate(43.931472, 84.459302) scale(-1, 1) translate(-43.931472, -84.459302) "></path>
                <path d="M3.81919304,157.802326 C8.48378877,139.455529 33.9726669,125.430233 65.0965266,125.430233 C95.3587634,125.430233 120.763823,139.455529 125.420264,157.802326 L3.81919304,157.802326 Z" id="Combined-Shape" fill="#BCE1FE"></path>
                <path d="M145.451777,175 C137.539261,175 115.780768,175 109.637287,175 C99.2909314,175 90.9035533,166.517323 90.9035533,156.05341 C90.9035533,145.589497 99.2909314,137.106819 109.637287,137.106819 C110.879203,137.106819 112.092895,137.229039 113.267243,137.462236 C115.504934,121.511132 129.0619,109.244186 145.451777,109.244186 C158.942697,109.244186 170.514222,117.555473 175.433536,129.391458 C176.084621,129.334404 176.743608,129.305282 177.409322,129.305282 C189.885809,129.305282 200,139.534393 200,152.152641 C200,164.770889 189.885809,175 177.409322,175 C171.949194,175 151.930561,175 145.451777,175 Z" id="Combined-Shape-Copy-3" fill="#E5F3FF"></path>
                <path d="M102.015228,2.01162791 C115.311464,2.0852512 123.055965,1.74804189 125.248731,1 C127.939633,0.133231551 127.864001,15.1810804 126.258883,17.1860465 C124.678095,18.5348837 116.596877,19.2093023 102.015228,19.2093023 L102.015228,2.01162791 Z" id="Rectangle-6" fill="#FF6666"></path>
            </g>
        </g>
    </g>
</svg>