<?xml version="1.0" encoding="UTF-8"?>
<svg width="199px" height="157px" viewBox="0 0 199 157" version="1.1" xmlns="http://www.w3.org/2000/svg" xmlns:xlink="http://www.w3.org/1999/xlink">
    <!-- Generator: sketchtool 46.2 (44496) - http://www.bohemiancoding.com/sketch -->
    <title>75E183C0-4DFF-4311-9B11-2B120228AE6D</title>
    <desc>Created with sketchtool.</desc>
    <defs></defs>
    <g id="首页" stroke="none" stroke-width="1" fill="none" fill-rule="evenodd">
        <g id="Employer-Copy-2" transform="translate(-108.000000, -845.000000)">
            <g id="1" transform="translate(108.000000, 845.000000)">
                <rect id="Rectangle-32" fill="#90C9FB" x="2" y="23" width="78" height="132" rx="4"></rect>
                <rect id="Rectangle-2" fill="#BCE1FE" x="2" y="33" width="78" height="101"></rect>
                <polygon id="Path-6" fill="#E5F3FF" points="69 33 4 134 80 134 80 33"></polygon>
                <circle id="Oval-2" fill="#FFFFFF" cx="41.5" cy="144.5" r="6.5"></circle>
                <rect id="Rectangle-4" fill="#FFFFFF" x="32" y="27" width="18" height="2"></rect>
                <path d="M83.2090955,2 L189,2 L189,2 C193.418278,2 197,5.581722 197,10 L197,94 L197,94 C197,98.418278 193.418278,102 189,102 L83.200595,102 L83.200595,101.999999 C78.7866995,101.999999 75.2067957,98.425113 75.2006042,94.0112218 C75.1923441,88.1226046 75.1985354,82.9973687 75.2191781,78.635514 C73.1692919,76.1700185 68.1521878,75.8254232 60.1678657,77.6017283 L60.1678665,77.6017321 C59.0896555,77.8416062 58.0211365,77.1619998 57.7812624,76.0837888 C57.6776399,75.6180156 57.7439575,75.1305417 57.9682417,74.709378 C62.709298,65.8065652 68.4596101,60.2616947 75.2191781,58.0747664 C75.1935579,43.4582275 75.1901986,27.4304149 75.2091002,9.99132848 L75.2091008,9.99132848 C75.213886,5.57643923 78.7942037,2 83.2090955,2 Z" id="Rectangle-33" fill="#9DE4EC"></path>
                <text id="Hello!" font-family="ProductSans-Bold, Product Sans" font-size="32" font-weight="bold" letter-spacing="2.28571391" fill="#FFFFFF">
                    <tspan x="89" y="63">Hello!</tspan>
                </text>
            </g>
        </g>
    </g>
</svg>