<?xml version="1.0" encoding="UTF-8"?>
<svg width="42px" height="36px" viewBox="0 0 42 36" version="1.1" xmlns="http://www.w3.org/2000/svg" xmlns:xlink="http://www.w3.org/1999/xlink">
    <!-- Generator: sketchtool 46.2 (44496) - http://www.bohemiancoding.com/sketch -->
    <title>F01C9F8F-FBEC-4ED8-AB08-7EFDBD73CAE5</title>
    <desc>Created with sketchtool.</desc>
    <defs></defs>
    <g id="首页" stroke="none" stroke-width="1" fill="none" fill-rule="evenodd">
        <g id="Employer-Copy-2" transform="translate(-158.000000, -491.000000)" fill-rule="nonzero" fill="#FCD126">
            <g id="皇冠" transform="translate(158.000000, 491.000000)">
                <path d="M36.9997238,9.25005933 C34.7917702,9.25005933 32.9996778,11.099808 32.9996778,13.375089 C32.9996778,13.9180996 33.1027801,14.4352413 33.2855104,14.9089516 L26.9997238,17.4998813 L22.7872595,8.81171115 C24.1443676,8.11643602 25.0018026,6.68773122 24.9998159,5.12502967 C24.9998159,2.84998598 23.2074933,1 20.9997699,1 C18.7918163,1 16.999954,2.84998598 16.999954,5.12502967 C16.999954,6.73958446 17.8997975,8.14149173 19.2125104,8.81171115 L15.000046,17.4998813 L8.71264844,14.9089516 C8.90271849,14.4213308 9.00029703,13.9006302 9.00009206,13.375089 C9.00009206,11.1000453 7.20799963,9.25005933 5.00004603,9.25005933 C2.79209242,9.25005933 1,11.1000453 1,13.375089 C1,15.6551166 2.79209242,17.5001187 5.00004603,17.5001187 C5.22512197,17.5001187 5.45019792,17.4839802 5.667219,17.4422102 L7.79830618,30.4970118 C7.99990794,32.559408 9.79821412,34 11.5983614,34 L30.2014177,34 C32.2013256,34 33.7982601,32.559408 34.2014637,30.4970118 L36.332781,17.4422102 C36.5498021,17.4842176 36.774878,17.5001187 36.999954,17.5001187 C39.2076774,17.5001187 41,15.6551166 41,13.375089 C40.9997699,11.099808 39.2074473,9.25005933 36.9997238,9.25005933 Z M24.829513,30.7877408 L20.9997699,28.7113422 L17.1700267,30.7877408 L17.9014085,26.3900192 L14.803047,23.2755399 L19.0847832,22.6340374 L20.9995397,18.6328939 L22.9145264,22.6340374 L27.1962625,23.2755399 L24.0979011,26.3900192 L24.829513,30.7877408 L24.829513,30.7877408 Z" id="Shape"></path>
            </g>
        </g>
    </g>
</svg>