<?xml version="1.0" encoding="UTF-8"?>
<svg width="122px" height="37px" viewBox="0 0 122 37" version="1.1" xmlns="http://www.w3.org/2000/svg" xmlns:xlink="http://www.w3.org/1999/xlink">
    <!-- Generator: sketchtool 46.2 (44496) - http://www.bohemiancoding.com/sketch -->
    <title>4E13AD0A-6094-4A89-A6E5-D786AAC718A9</title>
    <desc>Created with sketchtool.</desc>
    <defs></defs>
    <g id="首页" stroke="none" stroke-width="1" fill="none" fill-rule="evenodd">
        <g id="Home-" transform="translate(-396.000000, -2604.000000)">
            <g id="Appstore" transform="translate(396.000000, 2604.000000)">
                <rect id="backfround-copy" stroke="#FFFFFF" stroke-width="0.5" x="1.25" y="1.25" width="119.5" height="34.5" rx="3.84"></rect>
                <path d="M47.0604177,27.8793503 L49.0773018,27.8793503 L44.6621901,15.8637231 L42.6198831,15.8637231 L38.2047714,27.8793503 L40.1538611,27.8793503 L41.2809433,24.6901714 L45.9418098,24.6901714 L47.0604177,27.8793503 Z M43.5435821,18.0453546 L43.6876453,18.0453546 L45.4587745,23.1247258 L41.7639786,23.1247258 L43.5435821,18.0453546 Z M54.4251033,18.6615407 C53.1709065,18.6615407 52.0861958,19.2777267 51.5268918,20.3102546 L51.391303,20.3102546 L51.391303,18.8114237 L49.6371223,18.8114237 L49.6371223,30.8187242 L51.4590974,30.8187242 L51.4590974,26.5054221 L51.6031605,26.5054221 C52.0861958,27.4630084 53.128535,28.0292334 54.4420519,28.0292334 C56.7724852,28.0292334 58.2554882,26.2223096 58.2554882,23.3412236 C58.2554882,20.4601377 56.7724852,18.6615407 54.4251033,18.6615407 L54.4251033,18.6615407 Z M53.9081709,26.4221537 C52.3827964,26.4221537 51.4252002,25.2397427 51.4252002,23.3495505 C51.4252002,21.4510314 52.3827964,20.2686204 53.9166452,20.2686204 C55.4589683,20.2686204 56.3826673,21.4260509 56.3826673,23.3412236 C56.3826673,25.2647232 55.4589683,26.4221537 53.9081709,26.4221537 L53.9081709,26.4221537 Z M63.8744674,18.6615407 C62.6202706,18.6615407 61.5355599,19.2777267 60.9762559,20.3102546 L60.840667,20.3102546 L60.840667,18.8114237 L59.0864864,18.8114237 L59.0864864,30.8187242 L60.9084615,30.8187242 L60.9084615,26.5054221 L61.0525246,26.5054221 C61.5355599,27.4630084 62.5778991,28.0292334 63.891416,28.0292334 C66.2218492,28.0292334 67.7048522,26.2223096 67.7048522,23.3412236 C67.7048522,20.4601377 66.2218492,18.6615407 63.8744674,18.6615407 L63.8744674,18.6615407 Z M63.3575349,26.4221537 C61.8321604,26.4221537 60.8745642,25.2397427 60.8745642,23.3495505 C60.8745642,21.4510314 61.8321604,20.2686204 63.3660092,20.2686204 C64.9083323,20.2686204 65.8320313,21.4260509 65.8320313,23.3412236 C65.8320313,25.2647232 64.9083323,26.4221537 63.3575349,26.4221537 L63.3575349,26.4221537 Z M71.561693,24.6485372 C71.6972819,26.7968614 73.519257,28.1707897 76.2310338,28.1707897 C79.1292453,28.1707897 80.9427461,26.7302467 80.9427461,24.4320394 C80.9427461,22.6251156 79.9088812,21.625895 77.4004876,21.0513432 L76.0530735,20.7265965 C74.4599046,20.3602156 73.8158576,19.8689322 73.8158576,19.0112679 C73.8158576,17.9287789 74.8158253,17.2209977 76.3157769,17.2209977 C77.7394597,17.2209977 78.7224788,17.9121252 78.9004392,19.0195947 L80.7478372,19.0195947 C80.6376712,16.9961731 78.8241705,15.5722838 76.3411998,15.5722838 C73.6717944,15.5722838 71.8921909,16.9961731 71.8921909,19.1361704 C71.8921909,20.9014601 72.9006329,21.9506417 75.1124259,22.4585788 L76.6886462,22.8332865 C78.307238,23.2079942 79.0190794,23.7575655 79.0190794,24.6735177 C79.0190794,25.739353 77.9004715,26.5137489 76.375097,26.5137489 C74.7395566,26.5137489 73.604,25.789314 73.4429882,24.6485372 L71.561693,24.6485372 Z M82.5110087,16.6131385 L82.5110087,18.8530579 L80.9941085,18.8530579 L80.9941085,20.3602156 L82.5110087,20.3602156 L82.5110087,25.481221 C82.5110087,27.229857 83.3160674,27.9293114 85.3414258,27.9293114 C85.6973465,27.9293114 86.0278443,27.8876772 86.3159706,27.8377162 L86.3159706,26.3472122 C86.0617415,26.3721927 85.9176784,26.3888463 85.6380264,26.3888463 C84.731276,26.3888463 84.3329838,25.9725044 84.3329838,25.0232449 L84.3329838,20.3602156 L86.4007136,20.3602156 L86.4007136,18.8530579 L84.3329838,18.8530579 L84.3329838,16.6131385 L82.5110087,16.6131385 Z M90.9180335,26.4637879 C89.3333389,26.4637879 88.4435371,25.3230111 88.4435371,23.3412236 C88.4435371,21.3760899 89.3333389,20.2269862 90.9180335,20.2269862 C92.4942538,20.2269862 93.3925299,21.3760899 93.3925299,23.3412236 C93.3925299,25.3146842 92.4942538,26.4637879 90.9180335,26.4637879 L90.9180335,26.4637879 Z M90.9180335,28.0542139 C93.6128618,28.0542139 95.2653508,26.2805974 95.2653508,23.3412236 C95.2653508,20.4185035 93.6043875,18.6365601 90.9180335,18.6365601 C88.2232053,18.6365601 86.5622419,20.4185035 86.5622419,23.3412236 C86.5622419,26.2805974 88.2147309,28.0542139 90.9180335,28.0542139 L90.9180335,28.0542139 Z M96.096349,27.8793503 L97.9183241,27.8793503 L97.9183241,22.5251935 C97.9183241,21.2511873 98.8928689,20.393523 100.265706,20.393523 C100.570781,20.393523 101.130085,20.4518108 101.274148,20.5017719 L101.274148,18.7364822 C101.079239,18.6865212 100.731793,18.6615407 100.469089,18.6615407 C99.2657382,18.6615407 98.2488219,19.311034 97.9861185,20.2020057 L97.8505297,20.2020057 L97.8505297,18.8114237 L96.096349,18.8114237 L96.096349,27.8793503 Z M105.376227,20.1603715 C106.723641,20.1603715 107.604969,21.0846505 107.64734,22.5085398 L102.986474,22.5085398 C103.088165,21.0929774 104.028813,20.1603715 105.376227,20.1603715 L105.376227,20.1603715 Z M107.638866,25.43126 C107.299894,26.1390412 106.545681,26.5304026 105.444021,26.5304026 C103.986441,26.5304026 103.045794,25.5228552 102.986474,23.9324291 L102.986474,23.8325071 L109.503212,23.8325071 L109.503212,23.2079942 C109.503212,20.3602156 107.952415,18.6365601 105.384701,18.6365601 C102.78309,18.6365601 101.130601,20.4767913 101.130601,23.374531 C101.130601,26.2722706 102.749193,28.0542139 105.393176,28.0542139 C107.503277,28.0542139 108.977806,27.0549934 109.393046,25.43126 L107.638866,25.43126 Z" id="App-Store" fill="#FFFFFF"></path>
                <path d="M39.9122224,6.48476925 L39.9122224,12.2064965 L42.0146565,12.2064965 C43.7498709,12.2064965 44.754681,11.1557289 44.754681,9.32778966 C44.754681,7.52760658 43.7418001,6.48476925 42.0146565,6.48476925 L39.9122224,6.48476925 Z M40.816148,7.29366209 L41.913772,7.29366209 C43.1203512,7.29366209 43.8346139,8.04704267 43.8346139,9.33968514 C43.8346139,10.6521534 43.1324574,11.3976037 41.913772,11.3976037 L40.816148,11.3976037 L40.816148,7.29366209 Z M47.9353693,11.5324192 C47.1807528,11.5324192 46.7570377,10.9891921 46.7570377,10.0454838 C46.7570377,9.10970581 47.1807528,8.56251359 47.9353693,8.56251359 C48.6859504,8.56251359 49.1137009,9.10970581 49.1137009,10.0454838 C49.1137009,10.9852269 48.6859504,11.5324192 47.9353693,11.5324192 L47.9353693,11.5324192 Z M47.9353693,12.2897649 C49.2186209,12.2897649 50.0055204,11.4451856 50.0055204,10.0454838 C50.0055204,8.6537123 49.2145855,7.80516785 47.9353693,7.80516785 C46.6521178,7.80516785 45.8611829,8.6537123 45.8611829,10.0454838 C45.8611829,11.4451856 46.6480824,12.2897649 47.9353693,12.2897649 L47.9353693,12.2897649 Z M56.8059465,7.88843623 L55.9383394,7.88843623 L55.1554752,11.183485 L55.0868737,11.183485 L54.1829481,7.88843623 L53.3516593,7.88843623 L52.4477337,11.183485 L52.3831676,11.183485 L51.5962681,7.88843623 L50.7165548,7.88843623 L51.9271694,12.2064965 L52.8189889,12.2064965 L53.7229145,9.02643743 L53.791516,9.02643743 L54.699477,12.2064965 L55.5993673,12.2064965 L56.8059465,7.88843623 Z M57.908413,12.2064965 L58.7760201,12.2064965 L58.7760201,9.68068899 C58.7760201,9.00661162 59.2037707,8.58630456 59.9018918,8.58630456 C60.5475529,8.58630456 60.8623128,8.93127356 60.8623128,9.62517673 L60.8623128,12.2064965 L61.7299199,12.2064965 L61.7299199,9.41105804 C61.7299199,8.38408135 61.1770726,7.80516785 60.1964747,7.80516785 C59.534672,7.80516785 59.0221785,8.0946246 58.8083032,8.57440908 L58.7437371,8.57440908 L58.7437371,7.88843623 L57.908413,7.88843623 L57.908413,12.2064965 Z M63.1955708,12.2064965 L64.0631779,12.2064965 L64.0631779,6.20324282 L63.1955708,6.20324282 L63.1955708,12.2064965 Z M67.4254584,11.5324192 C66.6708419,11.5324192 66.2471268,10.9891921 66.2471268,10.0454838 C66.2471268,9.10970581 66.6708419,8.56251359 67.4254584,8.56251359 C68.1760395,8.56251359 68.60379,9.10970581 68.60379,10.0454838 C68.60379,10.9852269 68.1760395,11.5324192 67.4254584,11.5324192 L67.4254584,11.5324192 Z M67.4254584,12.2897649 C68.70871,12.2897649 69.4956095,11.4451856 69.4956095,10.0454838 C69.4956095,8.6537123 68.7046746,7.80516785 67.4254584,7.80516785 C66.1422069,7.80516785 65.351272,8.6537123 65.351272,10.0454838 C65.351272,11.4451856 66.1381715,12.2897649 67.4254584,12.2897649 L67.4254584,12.2897649 Z M72.1799458,11.5601753 C71.707806,11.5601753 71.3647986,11.3341611 71.3647986,10.9455753 C71.3647986,10.5649199 71.6392045,10.3626967 72.2445119,10.3230451 L73.3179236,10.2556373 L73.3179236,10.616467 C73.3179236,11.1517637 72.8336777,11.5601753 72.1799458,11.5601753 L72.1799458,11.5601753 Z M71.9579997,12.2778694 C72.5350594,12.2778694 73.0152699,12.0320294 73.2775697,11.5998269 L73.3461712,11.5998269 L73.3461712,12.2064965 L74.1814954,12.2064965 L74.1814954,9.25641676 C74.1814954,8.34442974 73.5600465,7.80516785 72.4583871,7.80516785 C71.4616477,7.80516785 70.7514205,8.28098717 70.662642,9.02247227 L71.5020015,9.02247227 C71.5988507,8.71715487 71.9337874,8.54268779 72.4180333,8.54268779 C73.0112345,8.54268779 73.3179236,8.80042325 73.3179236,9.25641676 L73.3179236,9.62914189 L72.1274858,9.69654963 C71.0823218,9.75999221 70.493156,10.2080554 70.493156,10.9852269 C70.493156,11.774294 71.1105695,12.2778694 71.9579997,12.2778694 L71.9579997,12.2778694 Z M77.229016,12.2778694 C77.8343233,12.2778694 78.3468169,11.996343 78.6091167,11.5244888 L78.6777182,11.5244888 L78.6777182,12.2064965 L79.509007,12.2064965 L79.509007,6.20324282 L78.6413998,6.20324282 L78.6413998,8.57440908 L78.5768337,8.57440908 C78.3387461,8.09858976 77.830288,7.81706333 77.229016,7.81706333 C76.1192859,7.81706333 75.4050232,8.68146842 75.4050232,10.0454838 C75.4050232,11.4134643 76.1112151,12.2778694 77.229016,12.2778694 L77.229016,12.2778694 Z M77.4751743,8.5823394 C78.2015431,8.5823394 78.6575413,9.14935742 78.6575413,10.049449 C78.6575413,10.9535057 78.2055785,11.5125934 77.4751743,11.5125934 C76.7407348,11.5125934 76.3008781,10.961436 76.3008781,10.0454838 C76.3008781,9.13746193 76.7447701,8.5823394 77.4751743,8.5823394 L77.4751743,8.5823394 Z M85.3377131,11.5324192 C84.5830966,11.5324192 84.1593815,10.9891921 84.1593815,10.0454838 C84.1593815,9.10970581 84.5830966,8.56251359 85.3377131,8.56251359 C86.0882942,8.56251359 86.5160447,9.10970581 86.5160447,10.0454838 C86.5160447,10.9852269 86.0882942,11.5324192 85.3377131,11.5324192 L85.3377131,11.5324192 Z M85.3377131,12.2897649 C86.6209646,12.2897649 87.4078642,11.4451856 87.4078642,10.0454838 C87.4078642,8.6537123 86.6169292,7.80516785 85.3377131,7.80516785 C84.0544615,7.80516785 83.2635266,8.6537123 83.2635266,10.0454838 C83.2635266,11.4451856 84.0504261,12.2897649 85.3377131,12.2897649 L85.3377131,12.2897649 Z M88.6556043,12.2064965 L89.5232115,12.2064965 L89.5232115,9.68068899 C89.5232115,9.00661162 89.950962,8.58630456 90.6490832,8.58630456 C91.2947443,8.58630456 91.6095041,8.93127356 91.6095041,9.62517673 L91.6095041,12.2064965 L92.4771113,12.2064965 L92.4771113,9.41105804 C92.4771113,8.38408135 91.9242639,7.80516785 90.9436661,7.80516785 C90.2818634,7.80516785 89.7693698,8.0946246 89.5554946,8.57440908 L89.4909285,8.57440908 L89.4909285,7.88843623 L88.6556043,7.88843623 L88.6556043,12.2064965 Z M96.675523,6.84163374 L96.675523,7.90826204 L95.9531896,7.90826204 L95.9531896,8.62595617 L96.675523,8.62595617 L96.675523,11.0645302 C96.675523,11.897214 97.0588843,12.2302875 98.0233407,12.2302875 C98.1928267,12.2302875 98.3502066,12.2104617 98.4874096,12.1866707 L98.4874096,11.4769069 C98.3663481,11.4888024 98.2977466,11.4967327 98.164579,11.4967327 C97.7327931,11.4967327 97.5431302,11.2984747 97.5431302,10.8464463 L97.5431302,8.62595617 L98.5277634,8.62595617 L98.5277634,7.90826204 L97.5431302,7.90826204 L97.5431302,6.84163374 L96.675523,6.84163374 Z M99.7633975,12.2064965 L100.631005,12.2064965 L100.631005,9.68465415 C100.631005,9.03040259 101.070861,8.59026972 101.781089,8.59026972 C102.434821,8.59026972 102.761686,8.93920389 102.761686,9.62914189 L102.761686,12.2064965 L103.629294,12.2064965 L103.629294,9.41898836 C103.629294,8.39201167 103.06434,7.80913301 102.075671,7.80913301 C101.413869,7.80913301 100.905411,8.09858976 100.691535,8.5823394 L100.622934,8.5823394 L100.622934,6.20324282 L99.7633975,6.20324282 L99.7633975,12.2064965 Z M106.862442,8.53079231 C107.504068,8.53079231 107.923747,8.97092517 107.943924,9.6489677 L105.724464,9.6489677 C105.772889,8.97489033 106.220816,8.53079231 106.862442,8.53079231 L106.862442,8.53079231 Z M107.939889,11.0407392 C107.778474,11.3777779 107.419325,11.5641404 106.894725,11.5641404 C106.200639,11.5641404 105.752712,11.084356 105.724464,10.3270102 L105.724464,10.2794283 L108.827673,10.2794283 L108.827673,9.98204122 C108.827673,8.62595617 108.089198,7.80516785 106.866477,7.80516785 C105.627615,7.80516785 104.840715,8.68146842 104.840715,10.0613444 C104.840715,11.4412205 105.611473,12.2897649 106.870513,12.2897649 C107.875323,12.2897649 108.577479,11.8139456 108.775213,11.0407392 L107.939889,11.0407392 Z" id="Download-on-the" fill="#FFFFFF"></path>
                <g id="logo_apple" transform="translate(11.743802, 6.440835)" fill="#FFFFFF">
                    <path d="M15.9785757,12.2259815 C15.9519798,9.321601 18.3988047,7.9086104 18.510691,7.84282704 C17.1249517,5.85761129 14.9771017,5.58636756 14.2223277,5.56474015 C12.4183904,5.37820376 10.6685621,6.62538424 9.74962714,6.62538424 C8.81235013,6.62538424 7.3972636,5.58276299 5.87212498,5.61340182 C3.90952928,5.6431395 2.07349349,6.7596544 1.06651682,8.49345153 C-1.01163358,12.0286315 0.53826676,17.2237149 2.52929258,20.081236 C3.52526405,21.4816107 4.68906495,23.0432897 6.21236937,22.98832 C7.70265816,22.9288446 8.25933835,22.0547369 10.057773,22.0547369 C11.8396998,22.0547369 12.3624473,22.98832 13.916016,22.9522743 C15.5154398,22.9288446 16.5224165,21.547394 17.4835381,20.1344034 C18.6344996,18.532173 19.0967184,16.9506689 19.1150604,16.8695661 C19.0783764,16.8578512 16.0097572,15.707093 15.9785757,12.2259815" id="Fill-2"></path>
                    <path d="M13.0438532,3.68495802 C13.8453993,2.70000985 14.3938256,1.36001175 14.2415868,0.000188525976 C13.0814543,0.0506524759 11.6306009,0.788687744 10.795122,1.7520085 C10.0559388,2.60088423 9.39562623,3.99224742 9.56620698,5.30070556 C10.8694072,5.3962266 12.2074573,4.65458677 13.0438532,3.68495802" id="Fill-3"></path>
                </g>
            </g>
        </g>
    </g>
</svg>