<svg id="图层_1" data-name="图层 1" xmlns="http://www.w3.org/2000/svg" viewBox="0 0 1198.99 535.12"><defs><style>.cls-1,.cls-3{fill:#fff;}.cls-2{fill:#e6e6e6;}.cls-2,.cls-3{fill-rule:evenodd;}</style></defs><title>BOSSJOB  — white</title><path class="cls-1" d="M247.9,347.6V313.79c4.36-6.33,13.47-11.07,21.79-11.07,14.46,0,24.17,11.27,24.17,27.68,0,16.61-9.71,27.88-24.17,27.88-8.32,0-17.43-4.55-21.79-10.68Zm0,30.65V366c7.53,9.49,18,14.63,29.51,14.63,24.17,0,42.39-18.19,42.39-50.23,0-31-18-50-42.39-50A36.31,36.31,0,0,0,247.9,295V246.36H222.74V378.25Zm140.38,2.37C420,380.62,439,357.49,439,330.4s-19-50-50.71-50c-31.49,0-50.51,22.94-50.51,50s19,50.23,50.51,50.23Zm0-22.34c-15.65,0-24.36-12.85-24.36-27.88,0-14.83,8.72-27.68,24.36-27.68,15.85,0,24.56,12.85,24.56,27.68,0,15-8.72,27.88-24.56,27.88Zm109.08,22.34c26.54,0,41.6-12.85,41.6-30.45,0-38.56-56.85-26.7-56.85-40.73,0-5.34,5.94-9.29,15.05-9.29,11.69,0,22.58,5.14,28.33,11.07l10.1-17.8a61,61,0,0,0-38.43-13.05c-25.35,0-39.22,14-39.22,30.06,0,37.57,56.65,24.72,56.65,40.34,0,5.93-5.15,10.08-16,10.08-11.88,0-25.95-6.53-33.08-13.25l-10.89,18.19c10.1,9.29,26.15,14.83,42.79,14.83Zm99.57,0c26.54,0,41.6-12.85,41.6-30.45,0-38.56-56.85-26.7-56.85-40.73,0-5.34,5.94-9.29,15.05-9.29,11.69,0,22.58,5.14,28.33,11.07l10.1-17.8a61,61,0,0,0-38.43-13.05c-25.35,0-39.22,14-39.22,30.06,0,37.57,56.65,24.72,56.65,40.34,0,5.93-5.15,10.08-16,10.08-11.88,0-25.95-6.53-33.08-13.25l-10.89,18.19c10.1,9.29,26.15,14.83,42.79,14.83Zm362-.2a16,16,0,1,0-16-16,16.22,16.22,0,0,0,16,16ZM670.76,267.71a7.94,7.94,0,0,0,7.92-7.91,7.77,7.77,0,0,0-7.92-7.71,7.9,7.9,0,0,0-7.92,7.71,8.07,8.07,0,0,0,7.92,7.91ZM650,417c16.44,0,25.95-8.9,25.95-26.7V282.74h-10.3V390.31c0,12.26-7.33,17.4-16.64,17.4-6.14,0-10.7-3.16-14.06-6.53l-4.56,8.5c5.74,4.94,11.09,7.32,19.61,7.32Zm103.58-36.38c28.33,0,46.15-22.34,46.15-50.23s-17.83-50-46.15-50c-27.93,0-45.76,22.15-45.76,50s17.83,50.23,45.76,50.23Zm0-9.29c-22.19,0-34.86-19.58-34.86-40.93,0-21.16,12.68-40.73,34.86-40.73,22.58,0,35.06,19.58,35.06,40.73,0,21.36-12.48,40.93-35.06,40.93Zm88.13-17V307.06c5.55-9.1,18.22-17.4,31.49-17.4,21.39,0,33.48,17.8,33.48,40.93s-12.08,40.73-33.48,40.73c-13.27,0-25.95-7.91-31.49-17Zm0,23.93V363a40.78,40.78,0,0,0,33.28,17.6c25.35,0,42.79-19.38,42.79-50,0-30.25-17.23-50.23-42.79-50.23-13.47,0-25.55,6.92-33.28,17.8V246.36h-10.3V378.25Z" transform="translate(224.04 -46.45)"/><path class="cls-2" d="M81.79,122c-9.25-17.7-51.94,24.15-53.83,24.8V75.44a124.87,124.87,0,0,1,26.69-20,45.64,45.64,0,0,1,32.81,43.8c0,7.49-2.14,15.16-5.68,22.78Z" transform="translate(224.04 -46.45)"/><path class="cls-2" d="M81.79,506c-9.25,17.7-51.94-24.15-53.83-24.8v71.35a124.88,124.88,0,0,0,26.69,20,45.64,45.64,0,0,0,32.81-43.8c0-7.49-2.14-15.16-5.68-22.78Z" transform="translate(224.04 -46.45)"/><path class="cls-3" d="M28,75.44H-157.15A67.09,67.09,0,0,0-224,142.33V485.69a67.09,67.09,0,0,0,66.89,66.89H28V481.23H-130.18a22.57,22.57,0,0,1-22.51-22.51V169.29a22.57,22.57,0,0,1,22.51-22.51H28V75.44Z" transform="translate(224.04 -46.45)"/><path class="cls-3" d="M88.11,581.57A66.9,66.9,0,0,0,143.5,477.16C107.93,424.77,39.92,393.82,39.89,314c0-80.35,65.07-106.4,103.6-163.15A66.9,66.9,0,0,0,54.65,55.41a45.64,45.64,0,0,1,32.81,43.8c0,32.59-40.45,68.8-60.95,87.86C13.89,198.81,3.55,210-5.91,225a167.32,167.32,0,0,0,0,178c9.46,15,19.8,26.18,32.43,37.93C47,460,87.47,496.22,87.47,528.81a45.64,45.64,0,0,1-32.81,43.8,66.56,66.56,0,0,0,33.46,9Z" transform="translate(224.04 -46.45)"/></svg>