<?xml version="1.0" encoding="UTF-8"?>
<svg width="103px" height="103px" viewBox="0 0 103 103" version="1.1" xmlns="http://www.w3.org/2000/svg" xmlns:xlink="http://www.w3.org/1999/xlink">
    <!-- Generator: sketchtool 46.2 (44496) - http://www.bohemiancoding.com/sketch -->
    <title>66EE9219-2A2F-4437-838D-3740807D9A11</title>
    <desc>Created with sketchtool.</desc>
    <defs></defs>
    <g id="首页" stroke="none" stroke-width="1" fill="none" fill-rule="evenodd">
        <g id="Home-" transform="translate(-581.000000, -2011.000000)" fill="#BCE1FE">
            <g id="Group-2" transform="translate(581.000000, 1997.000000)">
                <path d="M19.9979168,63.5808937 L19.9979168,37.8072051 L43.5386657,37.8072051 C42.4966455,34.6481211 41.906297,31.6838537 41.906297,29.7036099 C41.906297,23.2425952 48.1908225,18.004908 55.9431776,18.004908 C63.6955327,18.004908 69.9800582,23.2425952 69.9800582,29.7036099 C69.9800582,31.6838537 69.3897098,34.6481211 68.3476895,37.8072051 L92.1875883,37.8072051 L92.1875883,60.0237519 C93.9242568,59.5401873 95.4806949,59.2778671 96.6498552,59.2778671 C102.372468,59.2778671 107.011563,65.5623926 107.011563,73.3147476 C107.011563,81.0671027 102.372468,87.3516282 96.6498552,87.3516282 C95.4806949,87.3516282 93.9242568,87.0893079 92.1875883,86.6057434 L92.1875883,110.004908 L69.042042,110.004908 C69.6504144,107.998178 69.9840612,106.187032 69.9840612,104.868467 C69.9840612,99.1458538 63.6995357,94.5067594 55.9471806,94.5067594 C48.1948256,94.5067594 41.9103001,99.1458538 41.9103001,104.868467 C41.9103001,106.187032 42.2439468,107.998178 42.8523193,110.004908 L19.9979168,110.004908 L19.9979168,83.9878841 C23.2799439,85.4543841 26.5957281,86.317318 28.622721,86.317318 C33.7915327,86.317318 37.9816825,80.7061345 37.9816825,73.7843889 C37.9816825,66.8626433 33.7915327,61.2514598 28.622721,61.2514598 C26.5957281,61.2514598 23.2799439,62.1143937 19.9979167,63.5808938 Z" id="Combined-Shape-Copy-3" transform="translate(63.504740, 64.004908) rotate(46.000000) translate(-63.504740, -64.004908) "></path>
            </g>
        </g>
    </g>
</svg>