<?xml version="1.0" encoding="UTF-8"?>
<svg width="196px" height="180px" viewBox="0 0 196 180" version="1.1" xmlns="http://www.w3.org/2000/svg" xmlns:xlink="http://www.w3.org/1999/xlink">
    <!-- Generator: sketchtool 46.2 (44496) - http://www.bohemiancoding.com/sketch -->
    <title>499E2504-C9FE-499D-9383-C3B38CCCE1B4</title>
    <desc>Created with sketchtool.</desc>
    <defs></defs>
    <g id="首页" stroke="none" stroke-width="1" fill="none" fill-rule="evenodd">
        <g id="Home-" transform="translate(-429.000000, -1755.000000)">
            <g id="2" transform="translate(527.000000, 1845.000000) rotate(-360.000000) translate(-527.000000, -1845.000000) translate(429.000000, 1755.000000)">
                <path d="M22,50.9074441 L22,22.2704403 L47.7704372,22.2704403 C46.6867517,18.9216372 46.0744337,15.7922131 46.0744337,13.687631 C46.0744337,6.6804459 52.8622877,1 61.23553,1 C69.6087723,1 76.3966263,6.6804459 76.3966263,13.687631 C76.3966263,15.7922131 75.7843083,18.9216372 74.7006258,22.2704385 L100.381877,22.2704403 L100.381877,47.3683639 C102.56909,46.7020165 104.54426,46.3363156 105.979361,46.3363156 C112.162172,46.3363156 117.17433,53.1241696 117.17433,61.4974119 C117.17433,69.8706542 112.162172,76.6585082 105.979361,76.6585082 C104.54426,76.6585082 102.56909,76.2928073 100.381882,75.6264634 L100.381877,100.63522 L75.2784325,100.63522 C75.9428181,98.4480072 76.3074434,96.4728376 76.3074434,95.0377358 C76.3074434,88.8549254 69.5395536,83.8427673 61.1909385,83.8427673 C52.8423234,83.8427673 46.0744337,88.8549254 46.0744337,95.0377358 C46.0744337,96.4728376 46.439059,98.4480072 47.1034431,100.635215 L22,100.63522 L22,72.6388684 C18.2406049,74.4511677 14.3304151,75.5304493 12.0010991,75.5304493 C6.43656974,75.5304493 1.9256274,69.3711003 1.9256274,61.7731582 C1.9256274,54.1752161 6.43656974,48.0158671 12.0010991,48.0158671 C14.330415,48.0158671 18.2406044,49.0951485 22,50.9074441 Z" id="Combined-Shape" fill="#90C9FB"></path>
                <path d="M153.660309,100.63522 L178.763754,100.63522 L178.763754,71.9515743 C181.572793,73.1040026 184.302403,73.7699212 186.041094,73.7699212 C190.987343,73.7699212 194.997069,68.3806757 194.997069,61.7327044 C194.997069,55.0847331 190.987343,49.6954876 186.041094,49.6954876 C184.302403,49.6954876 181.572793,50.3614063 178.763754,51.5138345 L178.763754,22.2704403 L100.381877,22.2704403 L100.381877,47.3653362 C102.56909,46.7009506 104.54426,46.3363253 105.979361,46.3363253 C112.162172,46.3363253 117.17433,53.1042151 117.17433,61.4528302 C117.17433,69.8014453 112.162172,76.569335 105.979361,76.569335 C104.54426,76.569335 102.56909,76.2047097 100.381882,75.5403256 L100.381877,100.63522 L125.485322,100.63522 C124.820936,102.822433 124.456311,104.797603 124.456311,106.232704 C124.456311,112.415515 131.2242,117.427673 139.572816,117.427673 C147.921431,117.427673 154.68932,112.415515 154.68932,106.232704 C154.68932,104.797603 154.324695,102.822433 153.660311,100.635225 Z" id="Combined-Shape" fill="#9DE4EC"></path>
                <path d="M74.1605236,161.929507 L100.383711,161.929507 L100.383711,136.919729 C102.422811,137.530074 104.258323,137.863622 105.60803,137.863622 C111.687793,137.863622 117.176164,131.095732 117.176164,122.747117 C117.176164,114.398502 111.687793,107.630612 105.60803,107.630612 C104.258323,107.630612 102.422811,107.964161 100.383711,108.574505 L100.383711,83.5647273 L22.0018342,83.5647273 L22.0018342,111.408182 C26.5277842,109.05712 31.4792165,107.630612 34.3177651,107.630612 C40.5005755,107.630612 45.5127336,114.398502 45.5127336,122.747117 C45.5127336,131.095732 40.5005755,137.863622 34.3177651,137.863622 C31.4792165,137.863622 26.5277842,136.437114 22.0018295,134.08605 L22.0018342,161.929507 L45.9855396,161.929507 C45.3211521,164.11672 44.9565268,166.09189 44.9565268,167.526991 C44.9565268,173.709802 51.7244165,178.72196 60.0730316,178.72196 C68.4216467,178.72196 75.1895365,173.709802 75.1895365,167.526991 C75.1895365,166.09189 74.8249112,164.11672 74.160527,161.929512 Z" id="Combined-Shape-Copy" fill="#BCE1FE" transform="translate(69.588997, 131.143344) rotate(-90.000000) translate(-69.588997, -131.143344) "></path>
            </g>
        </g>
    </g>
</svg>