<?xml version="1.0" encoding="UTF-8"?>
<svg width="232px" height="178px" viewBox="0 0 232 178" version="1.1" xmlns="http://www.w3.org/2000/svg" xmlns:xlink="http://www.w3.org/1999/xlink">
    <!-- Generator: sketchtool 46.2 (44496) - http://www.bohemiancoding.com/sketch -->
    <title>0AAE9179-8B03-42E2-9CD8-797C966411CD</title>
    <desc>Created with sketchtool.</desc>
    <defs></defs>
    <g id="首页" stroke="none" stroke-width="1" fill="none" fill-rule="evenodd">
        <g id="Home---W-Copy-9" transform="translate(-102.000000, -1377.000000)">
            <g id="1" transform="translate(102.000000, 1377.000000)">
                <rect id="Rectangle-25" fill="#90C9FB" x="1.90196078" y="138.189744" width="165.058824" height="20.7589744"></rect>
                <path d="M63.8847059,65.0820513 L63.8847059,65.0820513 L63.8847059,65.0820513 L63.8847059,65.0820513 C88.433005,65.0820513 108.333333,84.9823796 108.333333,109.530679 L108.333333,120.138462 L19.9411765,120.138462 L19.9411765,109.025581 L19.9411765,109.025581 C19.9411765,84.7562395 39.6153647,65.0820513 63.8847059,65.0820513 Z" id="Rectangle-22" fill="#E5F3FF"></path>
                <ellipse id="Oval-16" fill="#FFDBC1" cx="40.2352941" cy="34.8461538" rx="4.96078431" ry="4.96410256"></ellipse>
                <ellipse id="Oval-16-Copy-2" fill="#FFDBC1" cx="114.196078" cy="90.8051282" rx="4.96078431" ry="4.96410256"></ellipse>
                <ellipse id="Oval-16-Copy" fill="#FFDBC1" cx="87.1372549" cy="34.8461538" rx="4.96078431" ry="4.96410256"></ellipse>
                <ellipse id="Oval-16-Copy-3" fill="#FFDBC1" cx="162.901961" cy="90.8051282" rx="4.96078431" ry="4.96410256"></ellipse>
                <path d="M57.8235294,60.5692308 L67.745098,60.5692308 L67.745098,67.3417798 L67.745098,67.3417798 C67.745098,70.0815453 65.5240792,72.3025641 62.7843137,72.3025641 L62.7843137,72.3025641 L62.7843137,72.3025641 C60.0445482,72.3025641 57.8235294,70.0815453 57.8235294,67.3417798 L57.8235294,60.5692308 Z" id="Rectangle-24" fill="#FFDBC1"></path>
                <path d="M62.7843137,63.2769231 C75.486863,63.2769231 85.7843137,51.1563009 85.7843137,36.2047558 C85.7843137,21.2532107 81.7843137,9.5366507 62.7843137,9.1325885 C43.7843137,8.7285263 39.7843137,21.2532107 39.7843137,36.2047558 C39.7843137,51.1563009 50.0817645,63.2769231 62.7843137,63.2769231 Z" id="Oval-15-Copy" fill="#FFDBC1"></path>
                <path d="M44.0616398,22.7720057 L44.2382559,34.3948718 L47.133886,34.3948718 L47.133886,24.9261769 C50.7176009,24.9277459 52.6480209,24.9277459 52.925146,24.9261769 C53.3365882,24.9285305 54.9908478,19.0120672 55.820776,19.0082425 C56.3487223,19.010692 60.6962228,19.0107883 68.8632776,19.0085315 C77.0303325,19.0107883 81.377833,19.010692 81.9057793,19.0082425 C82.7357075,19.0120672 84.3899671,24.9285305 84.8014093,24.9261769 C85.0785344,24.9277459 87.0089544,24.9277459 90.5926693,24.9261769 L90.5926693,34.3948718 L93.4882994,34.3948718 L93.9019608,19.0082425 L93.5609683,18.8533753 L93.6786873,18.8791432 C92.0344511,8.76484262 86.1561016,3.70769231 76.0436387,3.70769231 C65.883825,3.70769231 53.3068912,3.70769231 38.3128372,3.70769231 C37.1438599,14.6397111 39.0577411,20.9935666 44.0544809,22.7692589 C44.0568676,22.7701753 44.0592539,22.7710909 44.0616398,22.7720057 Z" id="Combined-Shape" fill="#3B76E6" transform="translate(65.941176, 19.051282) scale(-1, 1) translate(-65.941176, -19.051282) "></path>
                <polygon id="Rectangle-23" fill="#3B76E6" points="60.838991 70.4974359 65.6315972 70.4974359 66.8431373 119.235897 59.627451 119.235897"></polygon>
                <polygon id="Triangle" fill="#BCE1FE" transform="translate(57.823529, 70.948718) rotate(-135.000000) translate(-57.823529, -70.948718) " points="57.8235294 66.8871795 62.3333333 75.0102564 53.3137255 75.0102564"></polygon>
                <polygon id="Triangle-Copy" fill="#BCE1FE" transform="translate(68.647059, 70.948718) scale(-1, 1) rotate(-135.000000) translate(-68.647059, -70.948718) " points="68.6470588 66.8871795 73.1568627 75.0102564 64.1372549 75.0102564"></polygon>
                <polygon id="Rectangle-21" fill="#BCE1FE" points="15.5405668 110.210256 156.930021 110.210256 171.470588 138.189744 1 138.189744"></polygon>
                <rect id="Rectangle-24" fill="#FFDBC1" x="132.686275" y="117.430769" width="9.92156863" height="11.7333333"></rect>
                <path d="M138.747451,121.94359 L138.747451,121.94359 L138.747451,121.94359 L138.747451,121.94359 C163.29575,121.94359 183.196078,141.843918 183.196078,166.392217 L183.196078,177 L94.8039216,177 L94.8039216,165.887119 L94.8039216,165.887119 C94.8039216,141.617778 114.47811,121.94359 138.747451,121.94359 Z" id="Rectangle-22" fill="#9DE4EC"></path>
                <path d="M138.586992,118.333333 C152.733864,118.333333 161.8643,106.2624 163.956718,85.6412214 C166.464435,64.5170875 152.733864,52.4461538 138.586992,52.4461538 C124.533381,52.4461538 110.342797,64.5170875 113.217265,85.6412214 C115.862958,106.2624 124.533381,118.333333 138.586992,118.333333 Z" id="Oval" fill="#90C9FB"></path>
                <path d="M185.880392,46.1282051 L221.1,46.1282051 L221.1,46.1282051 C226.567619,46.1282051 231,50.5605861 231,56.0282051 L231,64.9304041 L231,64.9304041 C231,70.3980231 226.567619,74.8304041 221.1,74.8304041 L198.905229,74.8304041 L194.066269,78.0759976 L194.066269,78.0759976 C193.240666,78.6297475 192.122479,78.4093666 191.568729,77.5837633 C191.369824,77.2872083 191.263617,76.9381937 191.263617,76.5811105 L191.263617,74.8304041 L185.880392,74.8304041 L185.880392,74.8304041 C180.412773,74.8304041 175.980392,70.3980231 175.980392,64.9304041 L175.980392,56.0282051 L175.980392,56.0282051 C175.980392,50.5605861 180.412773,46.1282051 185.880392,46.1282051 Z" id="Rectangle-26" fill="#BCE1FE"></path>
                <path d="M113.723529,1 L148.943137,1 L148.943137,1 C154.410756,1 158.843137,5.43238098 158.843137,10.9 L158.843137,19.802199 L158.843137,19.802199 C158.843137,25.269818 154.410756,29.702199 148.943137,29.702199 L126.748366,29.702199 L121.909407,32.9477925 L121.909407,32.9477925 C121.083803,33.5015423 119.965617,33.2811615 119.411867,32.4555581 C119.212961,32.1590032 119.106754,31.8099885 119.106754,31.4529054 L119.106754,29.702199 L113.723529,29.702199 L113.723529,29.702199 C108.25591,29.702199 103.823529,25.269818 103.823529,19.802199 L103.823529,10.9 L103.823529,10.9 C103.823529,5.43238098 108.25591,1 113.723529,1 Z" id="Rectangle-26-Copy" fill="#90C9FB"></path>
                <rect id="Rectangle-27" fill="#FFFFFF" x="109.235294" y="8.22051282" width="41.4901961" height="2.70769231"></rect>
                <rect id="Rectangle-27-Copy-2" fill="#FFFFFF" x="183.196078" y="53.3487179" width="41.4901961" height="2.70769231"></rect>
                <rect id="Rectangle-27-Copy" fill="#FFFFFF" x="109.235294" y="15.4410256" width="27.9607843" height="2.70769231"></rect>
                <rect id="Rectangle-27-Copy-3" fill="#FFFFFF" x="183.196078" y="60.5692308" width="27.9607843" height="2.70769231"></rect>
                <path d="" id="Path-2" stroke="#979797" stroke-width="0.9"></path>
                <path d="" id="Path-4"></path>
                <path d="M153.487745,56.7558974 C151.120098,50.874188 146.892157,47.9333333 140.803922,47.9333333 C144.52451,50.0092308 146.553922,51.7391453 146.892157,53.1230769 C142.156863,50.874188 137.421569,50.0092308 132.686275,50.5282051 L137.759804,53.1230769 C154.057198,63.0481567 163.189551,68.2379003 165.156863,68.6923077 C162.789216,61.0806838 158.89951,57.1018803 153.487745,56.7558974 Z" id="Path-5" fill="#90C9FB"></path>
            </g>
        </g>
    </g>
</svg>