<?xml version="1.0" encoding="UTF-8"?>
<svg width="220px" height="158px" viewBox="0 0 220 158" version="1.1" xmlns="http://www.w3.org/2000/svg" xmlns:xlink="http://www.w3.org/1999/xlink">
    <!-- Generator: sketchtool 46.2 (44496) - http://www.bohemiancoding.com/sketch -->
    <title>71169099-7076-41D5-AD7A-08A76953F095</title>
    <desc>Created with sketchtool.</desc>
    <defs></defs>
    <g id="首页" stroke="none" stroke-width="1" fill="none" fill-rule="evenodd">
        <g id="Home-" transform="translate(-124.000000, -2189.000000)">
            <g id="Group-3" transform="translate(124.000000, 2189.000000)">
                <g id="Group" transform="translate(6.000000, 2.000000)">
                    <path d="M18.2170804,1.79746835 C39.5979116,1.79746835 60.9787428,1.79746835 82.359574,1.79746835 C88.7073842,2.34171128 84.342147,11.3631215 87.7653123,11.5037975 C89.854474,11.4160961 110.159635,11.410408 148.680797,11.486733 L148.680797,11.4867325 C153.255242,11.4957962 156.958763,15.2066625 156.958763,19.7811167 L156.958763,95.9587646 L156.958763,95.9587646 C156.958763,100.539635 153.245234,104.253165 148.664363,104.253165 L18.2170804,104.253165 L18.2170804,104.253165 C13.6362098,104.253165 9.92268041,100.539635 9.92268041,95.9587646 L9.92268041,10.0918684 L9.92268041,10.0918684 C9.92268041,5.51099773 13.6362098,1.79746835 18.2170804,1.79746835 Z" id="Rectangle-29-Copy" fill="#90C9FB" transform="translate(83.440722, 53.025316) scale(-1, 1) translate(-83.440722, -53.025316) "></path>
                    <rect id="Rectangle-29-Copy-2" fill="#9DE4EC" transform="translate(89.153378, 69.092239) scale(-1, 1) rotate(-14.000000) translate(-89.153378, -69.092239) " x="14.1091948" y="17.036339" width="150.088366" height="104.111801" rx="8.2944"></rect>
                    <path d="M8.46276451,26.9620253 L157.516617,26.9620253 C161.863866,26.9620253 165.337427,30.6629299 165.07732,35.5629954 L158.596717,133.39903 C158.843917,138.299095 155.234534,142 151.036015,142 L14.9433668,142 C10.7448473,142 7.13546463,138.299095 7.38266413,133.39903 L0.902061856,35.5629954 C0.641954721,30.6629299 4.11551517,26.9620253 8.46276451,26.9620253 Z" id="Rectangle-29" fill="#BCE1FE"></path>
                    <polygon id="Path" fill="#3B76E6" points="70.1353093 91.6708861 95.8440722 91.6708861 100.128866 120.43038 82.9896907 114.039381 65.8505155 120.43038"></polygon>
                    <path d="M63.6007711,59.2394736 C63.2065719,59.7313881 62.831015,60.2390503 62.47518,60.7613745 C59.2223296,60.5201882 56.1098774,62.4963095 55.0634748,65.7168056 C54.003582,68.9788201 55.4089388,72.4538969 58.2549078,74.1478679 C58.2532239,74.2661806 58.2523791,74.3846905 58.2523791,74.503399 C58.2523791,74.5877958 58.2528061,74.6720924 58.2536581,74.7562866 C55.4085275,76.450531 54.0037371,79.9250678 55.0634748,83.1866049 C56.1027002,86.385012 59.1797308,88.3560558 62.4082676,88.1466862 C62.8442826,88.7934774 63.3104299,89.418048 63.8046813,90.0183578 C62.5501523,93.0443133 63.464482,96.6336149 66.2138427,98.6311424 C69.0870284,100.718634 72.9942303,100.362976 75.4784807,97.9618857 C75.7386243,101.734367 78.86057,104.713382 82.673585,104.713382 C86.582746,104.713382 89.7655474,101.58224 89.8828746,97.6750357 C90.1756958,97.5801036 90.46608,97.479712 90.7539087,97.3739801 C93.1781911,100.294113 97.4701509,100.878615 100.563532,98.6311424 C103.760433,96.3084577 104.476268,91.8336036 102.18621,88.5947409 C102.317781,88.4086623 102.446815,88.220643 102.573263,88.030734 C106.115357,88.7124442 109.686269,86.6827995 110.822251,83.1866049 C111.950221,79.7150724 110.286086,76.002229 107.064874,74.4517052 C110.286086,72.9011815 111.950221,69.188338 110.822251,65.7168056 C109.679734,62.2004994 106.074194,60.1676641 102.512139,60.8847103 C102.494188,60.8580107 102.476185,60.8313489 102.458131,60.804725 C104.411964,57.6080037 103.626559,53.4068889 100.563532,51.1814688 C97.6932176,49.0960637 93.7909532,49.4489264 91.3063466,51.8435322 C90.9636272,51.7079392 90.6170884,51.579985 90.2669373,51.459878 C89.41228,48.2217116 86.4780405,45.835443 82.9896907,45.835443 C79.6363583,45.835443 76.7950725,48.0405643 75.820941,51.0877936 C75.5185379,51.1742657 75.218548,51.2665045 74.9210963,51.3643843 C72.4373607,49.4111046 68.8803116,49.2441658 66.2138427,51.1814688 C63.6307768,53.0581761 62.6674719,56.3399242 63.6007711,59.2394736 Z" id="Combined-Shape" fill="#E5F3FF"></path>
                    <ellipse id="Oval-5" fill="#90C9FB" cx="82.9896907" cy="75.4936709" rx="22.5515464" ry="22.4683544"></ellipse>
                    <path d="M82.9896907,84.0316456 L75.6321828,88.1040713 L75.6321828,88.1040713 C74.9642022,88.4738027 74.1229704,88.2320239 73.7532391,87.5640433 C73.6191273,87.3217483 73.5608795,87.0447583 73.586044,86.7689693 L74.4201031,77.6281646 L68.9942171,72.2222944 L68.9942171,72.2222944 C68.4533596,71.6834322 68.4517422,70.8081464 68.9906044,70.267289 C69.2165779,70.0404788 69.5142723,69.8991373 69.832862,69.8673958 L77.6336985,69.0901899 L81.7541509,60.8796855 L81.7541509,60.8796855 C82.0965991,60.1973157 82.9273782,59.9217547 83.609748,60.2642029 C83.8758311,60.397737 84.0916964,60.6136024 84.2252306,60.8796855 L88.345683,69.0901899 L96.1465195,69.8673958 L96.1465195,69.8673958 C96.9062366,69.9430873 97.460749,70.6203197 97.3850575,71.3800369 C97.3533161,71.6986265 97.2119746,71.9963209 96.9851644,72.2222944 L91.5592784,77.6281646 L92.3933374,86.7689693 L92.3933374,86.7689693 C92.4627133,87.5292891 91.9025926,88.2018905 91.1422727,88.2712664 C90.8664837,88.2964309 90.5894937,88.2381831 90.3471987,88.1040713 L82.9896907,84.0316456 Z" id="Star" fill="#FEE067"></path>
                </g>
                <g id="美元钱包" transform="translate(146.000000, 79.000000)">
                    <rect id="Rectangle-2" fill="#FFFFFF" x="18" y="24" width="34" height="50"></rect>
                    <path d="M39,62 L42,62 C43.3476111,61.973738 45,61.5606643 45,59.7500614 L45,55.2499386 C45,53.4393357 43.347502,53.026262 42,53 L39,53 L39,62 Z" id="Shape" fill="#3B76E6" fill-rule="nonzero"></path>
                    <path d="M29,41.2500409 L29,45.7501227 C29,47.5606763 30.6522798,47.9738206 32.0001091,48 L35,48 L35,39 L32.0001091,39 C30.6520617,39.0265885 29,39.4395691 29,41.2500409 Z" id="Shape" fill="#3B76E6" fill-rule="nonzero"></path>
                    <path d="M47.1674218,22.5642869 C48.0356335,21.6938039 48.5713781,20.5034372 48.5713781,19.1860631 C48.5713781,16.5888915 46.4889768,14.4998374 43.8897282,14.4058518 C45.5167422,13.3377627 57.9724723,4.96280179 53.4285777,1.1612489 C48.5712898,-2.90395402 37.7944968,5.03348803 33.9998675,4.7324365 C30.2052383,5.03348803 19.4285336,-2.90386642 14.571334,1.1612489 C10.0270862,4.96280179 22.4806087,13.3377627 24.1077993,14.4058518 C21.5130542,14.4998374 19.4285336,16.5888915 19.4285336,19.1860631 C19.4285336,20.5034372 19.966839,21.6938039 20.8300174,22.5642869 C8.59487235,29.1278583 0,44.5555885 0,62.5472931 C0,65.8643782 0.317808589,69.0778427 0.872715278,72.1832194 C22.4832578,78.6055935 45.5167422,78.6055935 67.1271964,72.1832194 C67.6820148,69.0778427 68,65.8643782 68,62.5472931 C68.0000883,44.5555885 59.405216,29.1278583 47.1674218,22.5642869 Z M41.2857111,48.093579 C44.2170737,48.093579 48.5713781,50.0179613 48.5713781,55.3204799 L48.5713781,60.138443 C48.5713781,65.4411367 44.2168971,67.3653438 41.2857111,67.3653438 L38.8571555,67.3653438 L38.8571555,69.774194 C38.8571555,71.1011156 37.7660627,72.1832194 36.4285998,72.1832194 C35.0909603,72.1832194 33.9999558,71.101028 33.9999558,69.774194 L33.9999558,67.3653438 L26.7142889,67.3653438 C25.3765611,67.3653438 24.2856449,66.2832401 24.2856449,64.9563185 C24.2856449,63.6296597 25.3766494,62.5472931 26.7142889,62.5472931 L33.9999558,62.5472931 L33.9999558,52.9116297 L31.5714885,52.9116297 C28.639861,52.9116297 24.2856449,50.9872474 24.2856449,45.6847288 L24.2856449,40.8666781 C24.2856449,35.5641596 28.6400376,33.6398648 31.5714885,33.6398648 L33.9999558,33.6398648 L33.9999558,31.2310146 C33.9999558,29.904093 35.090872,28.8219893 36.4285998,28.8219893 C37.7660627,28.8219893 38.8571555,29.9042682 38.8571555,31.2310146 L38.8571555,33.6398648 L46.1429108,33.6398648 C47.4805502,33.6398648 48.5713781,34.7222313 48.5713781,36.0488026 C48.5713781,37.3756366 47.4804619,38.4576528 46.1429108,38.4576528 L38.8571555,38.4576528 L38.8571555,48.093579 L41.2857111,48.093579 Z" id="Shape" fill="#3B76E6" fill-rule="nonzero"></path>
                </g>
            </g>
        </g>
    </g>
</svg>