<?xml version="1.0" encoding="UTF-8"?>
<svg width="20px" height="20px" viewBox="0 0 20 20" version="1.1" xmlns="http://www.w3.org/2000/svg" xmlns:xlink="http://www.w3.org/1999/xlink">
    <!-- Generator: sketchtool 46.2 (44496) - http://www.bohemiancoding.com/sketch -->
    <title>849F9D52-B434-4ED8-AB64-3335D05D7A61</title>
    <desc>Created with sketchtool.</desc>
    <defs></defs>
    <g id="首页" stroke="none" stroke-width="1" fill="none" fill-rule="evenodd">
        <g id="Home---W-Copy-9" transform="translate(-377.000000, -444.000000)" stroke="#999999" stroke-width="1.3">
            <g id="search" transform="translate(40.000000, 424.000000)">
                <g id="icon_location" transform="translate(337.000000, 20.000000)">
                    <path d="M10,18.1555287 C10.2489197,17.9448457 10.5229649,17.7065898 10.8162476,17.4438126 C11.7391175,16.616934 12.6619439,15.719367 13.5215168,14.7845027 C14.7670942,13.4298231 15.7700713,12.1145122 16.441091,10.8928194 C17.0381649,9.8057558 17.35,8.830171 17.35,8 C17.35,4.64868001 13.9929281,1.65 10,1.65 C6.00707195,1.65 2.65,4.64868001 2.65,8 C2.65,8.830171 2.96183508,9.8057558 3.55890903,10.8928194 C4.22992865,12.1145122 5.23290575,13.4298231 6.47848322,14.7845027 C7.33805607,15.719367 8.26088245,16.616934 9.18375242,17.4438126 C9.47703515,17.7065898 9.75108033,17.9448457 10,18.1555287 Z" id="Oval-2" opacity="0.98999995"></path>
                    <circle id="Oval-3" cx="10" cy="9" r="2.35"></circle>
                </g>
            </g>
        </g>
    </g>
</svg>