<?xml version="1.0" encoding="UTF-8"?>
<svg width="120px" height="35px" viewBox="0 0 120 35" version="1.1" xmlns="http://www.w3.org/2000/svg" xmlns:xlink="http://www.w3.org/1999/xlink">
    <!-- Generator: sketchtool 46.2 (44496) - http://www.bohemiancoding.com/sketch -->
    <title>84829653-2CDC-4210-B6EC-4915BE0C3918</title>
    <desc>Created with sketchtool.</desc>
    <defs></defs>
    <g id="首页" stroke="none" stroke-width="1" fill="none" fill-rule="evenodd">
        <g id="Home-" transform="translate(-251.000000, -2605.000000)">
            <g id="Playstore" transform="translate(250.000000, 2604.000000)">
                <rect id="background" stroke="#FFFFFF" stroke-width="0.5" x="1.25" y="1.25" width="119.5" height="34.4360517" rx="5"></rect>
                <g id="get-it-on" transform="translate(37.798924, 6.886364)" fill="#FFFFFF">
                    <path d="M26.7921991,5.72727273 C25.1877134,5.72727273 23.8870208,4.44517906 23.8870208,2.86363636 C23.8870208,1.28209367 25.1877134,0 26.7921991,0 C28.3966847,0 29.6973773,1.28209367 29.6973773,2.86363636 C29.6973773,4.44517906 28.3966847,5.72727273 26.7921991,5.72727273 Z M26.7921991,4.85227273 C27.9064252,4.85227273 28.8096839,3.9619299 28.8096839,2.86363636 C28.8096839,1.76534283 27.9064252,0.875 26.7921991,0.875 C25.6779729,0.875 24.7747142,1.76534283 24.7747142,2.86363636 C24.7747142,3.9619299 25.6779729,4.85227273 26.7921991,4.85227273 Z" id="o"></path>
                    <path d="M7.10154674,3.18181818 L7.10154674,4.93181818 L9.44182919,4.93181818 L9.44182919,5.56818182 L6.2138534,5.56818182 L6.2138534,5.25 L6.2138534,0.596590909 L6.2138534,0.238636364 L9.44182919,0.238636364 L9.44182919,0.875 L7.10154674,0.875 L7.10154674,2.54545455 L9.199731,2.54545455 L9.199731,3.18181818 L7.10154674,3.18181818 Z" id="e"></path>
                    <path d="M12.5891056,0.875 L12.5891056,5.56818182 L11.7014122,5.56818182 L11.7014122,0.875 L10.3295225,0.875 L10.3295225,0.238636364 L13.9609953,0.238636364 L13.9609953,0.875 L12.5891056,0.875 Z" id="t"></path>
                    <path d="M20.4976463,0.875 L20.4976463,5.56818182 L19.6099529,5.56818182 L19.6099529,0.875 L18.2380632,0.875 L18.2380632,0.238636364 L21.869536,0.238636364 L21.869536,0.875 L20.4976463,0.875 Z" id="t"></path>
                    <rect id="i" x="16.5433759" y="0.238636364" width="1" height="5.32954545"></rect>
                    <path d="M30.9482179,0.238636364 L30.4236718,0.238636364 L30.4236718,5.56818182 L31.3113652,5.56818182 L31.3113652,1.40853659 L33.8937458,5.56818182 L34.3375925,5.56818182 L34.7814391,5.56818182 L34.7814391,0.238636364 L33.8937458,0.238636364 L33.8937458,4.13830377 L31.472764,0.238636364 L30.9482179,0.238636364 Z" id="n"></path>
                    <g id="g" transform="translate(0.000000, 0.079545)">
                        <polygon id="Rectangle-1" points="2.88768757 2.55898613 5.31815794 2.55898613 5.29409388 3.31720424 2.88768757 3.31720424"></polygon>
                        <path d="M4.83988027,0.774973876 C4.36681677,0.283186686 3.67479435,0 2.85159148,0 C1.27670099,0 0,1.25708433 0,2.80777644 C0,4.35846855 1.27670251,5.61332939 2.85159148,5.61555289 C4.45279167,5.62976022 5.78830017,4.51797849 5.52124547,2.5871694 C5.52124547,2.57775599 5.52120513,2.56836152 5.52112458,2.55898613 L4.81116855,2.55898613 C4.81694891,2.63959508 4.81896449,2.72255286 4.81704263,2.80777644 C4.81873463,4.1868134 4.01196893,4.83364046 2.87565554,4.83364046 C1.73934215,4.83364046 0.818178145,3.92663024 0.818178145,2.80777644 C0.818178145,1.68892264 1.73934215,0.781912427 2.87565554,0.781912427 C3.4441349,0.781912427 3.93682711,0.973361804 4.28372059,1.3225881 L4.83988027,0.774973876 Z" id="Oval-1"></path>
                    </g>
                </g>
                <g id="googleplay" transform="translate(37.395427, 16.272727)" fill="#FFFFFF">
                    <g id="big-P" transform="translate(50.356422, 0.397727)">
                        <path d="M0.403496974,2.79573778e-07 L4.97857917,0 C4.97857917,0 7.61232788,0.44169478 7.61232767,3.42282489 C7.61232747,6.40395501 4.97857917,6.84564979 4.97857917,6.84564979 L0.403496974,6.84565007 L0.403496974,2.79573778e-07 Z M1.29119032,1.65589079 L1.29119032,5.32954545 L4.39697964,5.32954545 C4.39697964,5.32954545 5.81035642,5.32954545 5.81035642,3.49271812 C5.81035642,1.65589079 4.39697964,1.65589079 4.39697964,1.65589079 L1.29119032,1.65589079 Z" id="Combined-Shape"></path>
                        <rect id="Rectangle-6" x="0" y="0" width="1.6139879" height="11.1363636"></rect>
                    </g>
                    <rect id="y" x="58.9105582" y="0.397727273" width="1.6139879" height="11.1363636"></rect>
                    <path d="M66.5066323,10.7378515 C66.0620832,11.0993925 65.3513606,11.4396625 64.2288446,11.5087669 C61.6572214,11.6670811 61.6558816,9.35397046 61.6558816,9.19798695 C61.6558816,9.04200344 61.5290401,7.1556341 63.5746988,6.85578502 C65.0232265,6.64346237 66.0377653,6.99723273 66.5066323,7.22185627 L66.5066323,6.89465035 C66.3916533,6.4613004 66.0348447,5.66505016 64.9651478,5.66505016 C63.4955432,5.66505016 63.1710048,6.44823109 63.1710048,6.44823109 L61.8266191,5.66505016 C61.8266191,5.66505016 62.5789131,4.13636363 64.8362179,4.13636364 C67.6429575,4.13636364 68.1207877,6.04460976 68.1207877,6.68730441 C68.1207877,6.69043274 68.1207316,6.69354085 68.1206202,6.69662884 L68.1206202,11.5305176 L66.5066323,11.5305176 L66.5066323,10.7378515 Z M66.3913362,8.35250577 C66.3913362,8.35250577 63.2819665,7.52640609 63.1738813,9.24820779 C63.0657961,10.9700095 66.1568825,10.1432495 66.4330651,8.9226851 C66.433065,8.53455143 66.3913362,8.35250577 66.3913362,8.35250577 Z" id="a"></path>
                    <path d="M71.1491586,11.1115789 L69.6435777,14.6363636 L71.2575656,14.6363636 L75.6241594,4.41352983 L74.0101715,4.41352983 L71.9561525,9.22228822 L69.8856759,4.375 L68.271688,4.375 L71.1491586,11.1115789 Z" id="y"></path>
                    <path d="M46.7431349,6.97817719 L41.6385782,9.05761414 C41.6385782,9.05761414 41.9682493,10.2077475 43.502971,10.2154561 C44.7047152,10.2214923 45.3831067,9.16551218 45.3831067,9.16551218 L46.6782012,10.0300471 C46.6782012,10.0300471 45.6331309,11.6960758 43.4927699,11.6960758 C40.8625613,11.6960758 39.7041022,9.42905931 39.7041022,7.95678399 C39.7041022,6.53828472 40.6236208,4.13636364 43.3295528,4.13636364 C46.0354847,4.13636364 46.7431349,6.97817719 46.7431349,6.97817719 Z M44.8009591,6.38910307 C44.8009591,6.38910307 44.158735,5.42594723 43.1737903,5.60357445 C41.0903198,5.97931239 41.3525069,7.77648766 41.3525069,7.77648766 L44.8009591,6.38910307 Z" id="e"></path>
                    <rect id="i" x="37.2831204" y="0.397727273" width="1.70750222" height="11.1129679"></rect>
                    <path d="M34.5506305,4.37788454 L36.1290499,4.3913254 L36.1290499,11.4032675 C36.1290499,13.1947995 35.0469518,15.0859333 32.4994306,15.0859333 C29.9519095,15.0859333 29.129154,12.8610728 29.129154,12.8610728 L30.5787849,12.2601333 C30.5787849,12.2601333 31.020913,13.6313133 32.5747616,13.6313114 C34.344255,13.6313094 34.5508266,12.0444819 34.5508266,11.5013062 L34.5508266,10.7403481 C34.5508266,10.7403481 33.9385662,11.6849 32.4178221,11.6849021 C30.7690251,11.6849044 28.8096839,10.292453 28.8096839,7.9185996 C28.8096839,5.54474617 30.6546554,4.18692864 32.4369,4.13753767 C33.8644616,4.09797596 34.5506305,5.07139737 34.5506305,5.07139737 L34.5506305,4.37788454 Z M32.5525939,10.259992 C33.7036421,10.259992 34.636751,9.22067674 34.636751,7.93861644 C34.636751,6.65655615 33.7036421,5.61724092 32.5525939,5.61724092 C31.4015457,5.61724092 30.4684368,6.65655615 30.4684368,7.93861644 C30.4684368,9.22067674 31.4015457,10.259992 32.5525939,10.259992 Z" id="g"></path>
                    <path d="M24.2588269,11.6931818 C22.1370151,11.6931818 20.4169469,10.0015304 20.4169469,7.91477273 C20.4169469,5.82801501 22.1370151,4.13636364 24.2588269,4.13636364 C26.3806386,4.13636364 28.1007068,5.82801501 28.1007068,7.91477273 C28.1007068,10.0015304 26.3806386,11.6931818 24.2588269,11.6931818 Z M24.2337165,10.2114528 C25.4263689,10.2114528 26.3932046,9.18319409 26.3932046,7.91477273 C26.3932046,6.64635137 25.4263689,5.61809269 24.2337165,5.61809269 C23.0410642,5.61809269 22.0742284,6.64635137 22.0742284,7.91477273 C22.0742284,9.18319409 23.0410642,10.2114528 24.2337165,10.2114528 Z" id="o"></path>
                    <path d="M15.9467892,11.6931818 C13.8249775,11.6931818 12.1049092,10.0015304 12.1049092,7.91477273 C12.1049092,5.82801501 13.8249775,4.13636364 15.9467892,4.13636364 C18.0686009,4.13636364 19.7886692,5.82801501 19.7886692,7.91477273 C19.7886692,10.0015304 18.0686009,11.6931818 15.9467892,11.6931818 Z M15.9216789,10.2114528 C17.1143312,10.2114528 18.081167,9.18319409 18.081167,7.91477273 C18.081167,6.64635137 17.1143312,5.61809269 15.9216789,5.61809269 C14.7290265,5.61809269 13.7621908,6.64635137 13.7621908,7.91477273 C13.7621908,9.18319409 14.7290265,10.2114528 15.9216789,10.2114528 Z" id="o"></path>
                    <g id="big-g">
                        <polygon id="Rectangle-1" points="6.02647841 5.3342246 11.0987644 5.3342246 11.0485437 6.91473559 6.02647841 6.91473559"></polygon>
                        <path d="M10.1006197,1.6154385 C9.11335673,0.590304642 7.66913604,0 5.95114743,0 C2.66441946,0 0,2.62040114 0,5.85282977 C0,9.08525839 2.66442263,11.7010246 5.95114743,11.7056595 C9.29278262,11.7352748 12.0799308,9.41775797 11.5225992,5.39297284 C11.5225992,5.37335051 11.5225151,5.35376768 11.522347,5.3342246 L10.0406996,5.3342246 C10.052763,5.50225453 10.0569694,5.67518061 10.0529585,5.85282977 C10.0564897,8.72744202 8.37280471,10.0757576 6.00136808,10.0757576 C3.62993145,10.0757576 1.70750222,8.1850884 1.70750222,5.85282977 C1.70750222,3.52057114 3.62993145,1.62990196 6.00136808,1.62990196 C7.1877598,1.62990196 8.215987,2.02897954 8.93993862,2.75694421 L10.1006197,1.6154385 Z" id="Oval-1"></path>
                    </g>
                </g>
            </g>
        </g>
    </g>
</svg>